<?xml version="1.0" encoding="UTF-8" standalone="no"?>
<!DOCTYPE svg PUBLIC "-//W3C//DTD SVG 1.1//EN"
 "http://www.w3.org/Graphics/SVG/1.1/DTD/svg11.dtd">
<!-- Generated by graphviz version 2.38.0 (20140413.2041)
 -->
<!-- Title: %3 Pages: 1 -->
<svg width="225pt" height="170pt"
 viewBox="0.00 0.00 225.00 170.12" xmlns="http://www.w3.org/2000/svg" xmlns:xlink="http://www.w3.org/1999/xlink">
<g id="graph0" class="graph" transform="scale(1 1) rotate(0) translate(4 166.125)">
<title>%3</title>
<polygon fill="white" stroke="none" points="-4,4 -4,-166.125 221,-166.125 221,4 -4,4"/>
<!-- &#45;1 -->
<g id="node1" class="node"><title>&#45;1</title>
<polygon fill="lightgray" stroke="black" points="24,-162.125 0,-162.125 0,-144.125 24,-144.125 24,-162.125"/>
<text text-anchor="middle" x="12" y="-150.925" font-family="Times New Roman,serif" font-size="9.00">&#45;1</text>
</g>
<!-- &#45;2 -->
<g id="node2" class="node"><title>&#45;2</title>
<polygon fill="lightgray" stroke="black" points="66,-162.125 42,-162.125 42,-144.125 66,-144.125 66,-162.125"/>
<text text-anchor="middle" x="54" y="-150.925" font-family="Times New Roman,serif" font-size="9.00">&#45;2</text>
</g>
<!-- 0 -->
<g id="node6" class="node"><title>0</title>
<ellipse fill="lightblue" stroke="black" cx="54" cy="-86.9117" rx="14.7" ry="14.7"/>
<text text-anchor="middle" x="54" y="-84.7117" font-family="Times New Roman,serif" font-size="9.00">0</text>
</g>
<!-- &#45;2&#45;&gt;0 -->
<g id="edge1" class="edge"><title>&#45;2&#45;&gt;0</title>
<path fill="none" stroke="green" stroke-width="0.378944" d="M54,-143.992C54,-136.013 54,-123.444 54,-112.226"/>
<polygon fill="green" stroke="green" stroke-width="0.378944" points="57.5001,-112.078 54,-102.078 50.5001,-112.078 57.5001,-112.078"/>
</g>
<!-- &#45;3 -->
<g id="node3" class="node"><title>&#45;3</title>
<polygon fill="lightgray" stroke="black" points="133,-162.125 109,-162.125 109,-144.125 133,-144.125 133,-162.125"/>
<text text-anchor="middle" x="121" y="-150.925" font-family="Times New Roman,serif" font-size="9.00">&#45;3</text>
</g>
<!-- 1 -->
<g id="node7" class="node"><title>1</title>
<ellipse fill="lightblue" stroke="black" cx="121" cy="-14.8492" rx="14.7" ry="14.7"/>
<text text-anchor="middle" x="121" y="-12.6492" font-family="Times New Roman,serif" font-size="9.00">1</text>
</g>
<!-- &#45;3&#45;&gt;1 -->
<g id="edge2" class="edge"><title>&#45;3&#45;&gt;1</title>
<path fill="none" stroke="red" stroke-width="0.124478" d="M119.803,-144.039C118.564,-135.23 116.713,-120.713 116,-108.125 114.934,-89.2989 115.058,-84.5311 116,-65.6985 116.423,-57.2423 117.247,-48.0093 118.106,-39.813"/>
<polygon fill="red" stroke="red" stroke-width="0.124478" points="121.594,-40.1144 119.225,-29.7879 114.638,-39.338 121.594,-40.1144"/>
</g>
<!-- 179 -->
<g id="node8" class="node"><title>179</title>
<ellipse fill="white" stroke="black" cx="146" cy="-86.9117" rx="21.4286" ry="21.4286"/>
<text text-anchor="middle" x="146" y="-84.7117" font-family="Times New Roman,serif" font-size="9.00">179</text>
</g>
<!-- &#45;3&#45;&gt;179 -->
<g id="edge3" class="edge"><title>&#45;3&#45;&gt;179</title>
<path fill="none" stroke="red" stroke-width="0.179638" d="M124.166,-143.992C126.894,-136.985 131.001,-126.438 134.919,-116.374"/>
<polygon fill="red" stroke="red" stroke-width="0.179638" points="138.2,-117.594 138.566,-107.005 131.677,-115.054 138.2,-117.594"/>
</g>
<!-- &#45;4 -->
<g id="node4" class="node"><title>&#45;4</title>
<polygon fill="lightgray" stroke="black" points="175,-162.125 151,-162.125 151,-144.125 175,-144.125 175,-162.125"/>
<text text-anchor="middle" x="163" y="-150.925" font-family="Times New Roman,serif" font-size="9.00">&#45;4</text>
</g>
<!-- &#45;5 -->
<g id="node5" class="node"><title>&#45;5</title>
<polygon fill="lightgray" stroke="black" points="217,-162.125 193,-162.125 193,-144.125 217,-144.125 217,-162.125"/>
<text text-anchor="middle" x="205" y="-150.925" font-family="Times New Roman,serif" font-size="9.00">&#45;5</text>
</g>
<!-- 179&#45;&gt;1 -->
<g id="edge4" class="edge"><title>179&#45;&gt;1</title>
<path fill="none" stroke="green" stroke-width="0.143061" d="M139.169,-66.7668C136.059,-58.0533 132.357,-47.6762 129.107,-38.5704"/>
<polygon fill="green" stroke="green" stroke-width="0.143061" points="132.345,-37.2284 125.688,-28.9863 125.752,-39.581 132.345,-37.2284"/>
</g>
</g>
</svg>
